<svg width="360" height="640" viewBox="0 0 360 640" fill="none" xmlns="http://www.w3.org/2000/svg">
<g clip-path="url(#clip0_207_412)">
<rect width="360" height="639.76" fill="url(#paint0_radial_207_412)"/>
<path opacity="0.12" fill-rule="evenodd" clip-rule="evenodd" d="M503.355 623.506L-0.795489 761.107L-66.6705 608.412C-66.6705 608.412 -120.926 589.019 21.3082 602.303C163.543 615.588 306.575 556.514 379.231 556.433C451.886 556.351 351.49 587.001 430.625 579.541C509.76 572.081 503.355 623.506 503.355 623.506Z" fill="white"/>
<path opacity="0.12" fill-rule="evenodd" clip-rule="evenodd" d="M503.355 603.506L-0.795431 741.107L-66.6705 588.412C-66.6705 588.412 -120.926 569.019 21.3082 582.303C163.543 595.588 306.575 536.514 379.231 536.433C451.886 536.351 351.49 567.001 430.625 559.541C509.76 552.081 503.355 603.506 503.355 603.506Z" fill="white"/>
</g>
<defs>
<radialGradient id="paint0_radial_207_412" cx="0" cy="0" r="1" gradientUnits="userSpaceOnUse" gradientTransform="translate(316 631) rotate(-128.754) scale(568.708 2602.5)">
<stop stop-color="#5EBE4F"/>
<stop offset="1" stop-color="#016C3F"/>
</radialGradient>
<clipPath id="clip0_207_412">
<rect width="360" height="639.76" fill="white"/>
</clipPath>
</defs>
</svg>
